# xmcd
#
# Track frame offsets:
#	150
#	9675
#	22737
#	40922
#	52255
#	66040
#	77283
#	91890
#	103586
#	114479
#	130759
#	142022
#	154842
#	167111
#	181555
#	193687
#	207880
#	221422
#	239333
#	252167
#	265603
#	278792
#	292607
#	305488
#	324309
#
# Disc length: 4452 seconds
#
# Revision: 0
# Processed by: cddbd v1.5.2PL0 Copyright (c) Steve Scherf et al.
# Submitted via: EZCDAudioConverter 7.0.6.1
#
DISCID=4e116219
DTITLE=Gene Watson - Barrooms and Bedrooms
DYEAR=1900
DGENRE=
TTITLE0=Gene Watson - Drinkin' My Way Back Home
TTITLE1=Gene Watson - Sometimes I Get Lucky and Forget
TTITLE2=Gene Watson - Farewell Party
TTITLE3=Gene Watson - Forever Again
TTITLE4=Gene Watson - Bad Water
TTITLE5=Gene Watson - This Is My Year For Mexico
TTITLE6=Gene Watson - This Dream's On Me
TTITLE7=Gene Watson - Should I Come Home (Or Should I Go Crazy)
TTITLE8=Gene Watson - Circle Driveway
TTITLE9=Gene Watson - Little By Little
TTITLE10=Gene Watson - This Just Ain't No Good Day For Leaving
TTITLE11=Unknown artist - Shadows On The Wall
TTITLE12=Unknown artist - Got No Reason For Going Home
TTITLE13=Unknown artist - I'd Settle For Just Crossing Her Mind
TTITLE14=Unknown artist - If I'm A Fool For Leaving
TTITLE15=Unknown artist - Most Of All Why
TTITLE16=Unknown artist - The Ballad Of Richard Lindsey
TTITLE17=Unknown artist - You Gave Me A Mountain
TTITLE18=Unknown artist - One Hell Of A Heartache
TTITLE19=Unknown artist - I Can't Help It (If I'm Still In Love With You)
TTITLE20=Unknown artist - I Guess You Had To Be There
TTITLE21=Unknown artist - I Know What It's Like To Be In Her Arms
TTITLE22=Unknown artist - The Beer At Dorsey's Bar
TTITLE23=Unknown artist - The Old Man And His Horn
TTITLE24=Unknown artist - Hey Barnum and Bailey
EXTD=
EXTT0=
EXTT1=
EXTT2=
EXTT3=
EXTT4=
EXTT5=
EXTT6=
EXTT7=
EXTT8=
EXTT9=
EXTT10=
EXTT11=
EXTT12=
EXTT13=
EXTT14=
EXTT15=
EXTT16=
EXTT17=
EXTT18=
EXTT19=
EXTT20=
EXTT21=
EXTT22=
EXTT23=
EXTT24=
PLAYORDER=
